<?xml version="1.0" encoding="UTF-8" standalone="no"?>
<!DOCTYPE svg PUBLIC "-//W3C//DTD SVG 1.1//EN" "http://www.w3.org/Graphics/SVG/1.1/DTD/svg11.dtd">
<svg width="100%" height="100%" viewBox="0 0 24 24" version="1.1" xmlns="http://www.w3.org/2000/svg" xmlns:xlink="http://www.w3.org/1999/xlink" xml:space="preserve" xmlns:serif="http://www.serif.com/" style="fill-rule:evenodd;clip-rule:evenodd;stroke-linecap:square;stroke-linejoin:round;stroke-miterlimit:1.5;">
    <g transform="matrix(0.025,0,0,0.025,0,24)">
        <path d="M200,-120C178,-120 159.167,-127.833 143.5,-143.5C127.833,-159.167 120,-178 120,-200L120,-760C120,-782 127.833,-800.833 143.5,-816.5C159.167,-832.167 178,-840 200,-840L760,-840C782,-840 800.833,-832.167 816.5,-816.5C832.167,-800.833 840,-782 840,-760L840,-200C840,-178 832.167,-159.167 816.5,-143.5C800.833,-127.833 782,-120 760,-120L200,-120ZM200,-200L760,-200L760,-760L200,-760L200,-200ZM200,-200L200,-760L200,-200Z" style="fill:rgb(31,31,31);fill-rule:nonzero;"/>
    </g>
    <g transform="matrix(0.834991,0,0,0.834991,1.985573,1.756106)">
        <path d="M6,18C10.667,2.067 14.157,1.613 18,18" style="fill:none;stroke:black;stroke-width:2.99px;"/>
    </g>
</svg>
