<?xml version="1.0" encoding="UTF-8" standalone="no"?>
<!DOCTYPE svg PUBLIC "-//W3C//DTD SVG 1.1//EN" "http://www.w3.org/Graphics/SVG/1.1/DTD/svg11.dtd">
<svg width="100%" height="100%" viewBox="0 0 24 24" version="1.1" xmlns="http://www.w3.org/2000/svg" xmlns:xlink="http://www.w3.org/1999/xlink" xml:space="preserve" xmlns:serif="http://www.serif.com/" style="fill-rule:evenodd;clip-rule:evenodd;stroke-linejoin:round;stroke-miterlimit:2;">
    <g transform="matrix(0.025,0,0,0.025,0,24)">
        <path d="M120,-120C127.333,-178 137.5,-241.5 150.5,-310.5C163.5,-379.5 180,-441.333 200,-496C217.333,-542 236,-577.5 256,-602.5C276,-627.5 297.333,-640 320,-640C333.333,-640 346.667,-635.333 360,-626C373.333,-616.667 386.333,-602.333 399,-583C411.667,-563.667 423.5,-540.333 434.5,-513C445.5,-485.667 455.333,-453.667 464,-417C472.667,-485.667 482.667,-546.167 494,-598.5C505.333,-650.833 518.333,-695 533,-731C547.667,-767 563.833,-794.167 581.5,-812.5C599.167,-830.833 618.667,-840 640,-840C668.667,-840 694.333,-823 717,-789C739.667,-755 759.333,-706.667 776,-644C796.667,-566.667 811.667,-480 821,-384C830.333,-288 836.667,-200 840,-120L760,-120C679.163,-1251.916 552.734,-573.204 521.762,-387.348C508.014,-304.85 416.95,-306.774 388,-391C378.505,-431.476 365.333,-465.5 354,-494.5C342.667,-523.5 331.333,-543.667 320,-555C308.667,-543.667 297.333,-523.667 286,-495C274.667,-466.333 263.333,-432 252,-392C240.667,-352 230.5,-308.833 221.5,-262.5C212.5,-216.167 205.333,-168.667 200,-120L120,-120Z" style="fill:rgb(31,31,31);fill-rule:nonzero;"/>
    </g>
</svg>
