<?xml version="1.0" encoding="UTF-8" standalone="no"?>
<!DOCTYPE svg PUBLIC "-//W3C//DTD SVG 1.1//EN" "http://www.w3.org/Graphics/SVG/1.1/DTD/svg11.dtd">
<svg width="100%" height="100%" viewBox="0 0 24 24" version="1.1" xmlns="http://www.w3.org/2000/svg" xmlns:xlink="http://www.w3.org/1999/xlink" xml:space="preserve" xmlns:serif="http://www.serif.com/" style="fill-rule:evenodd;clip-rule:evenodd;stroke-linecap:round;stroke-linejoin:round;">
    <g transform="matrix(0.025,0,0,0.025,0,24)">
        <path d="M200,-120C178,-120 159.167,-127.833 143.5,-143.5C127.833,-159.167 120,-178 120,-200L120,-760C120,-782 127.833,-800.833 143.5,-816.5C159.167,-832.167 178,-840 200,-840L760,-840C782,-840 800.833,-832.167 816.5,-816.5C832.167,-800.833 840,-782 840,-760L840,-200C840,-178 832.167,-159.167 816.5,-143.5C800.833,-127.833 782,-120 760,-120L200,-120ZM200,-200L760,-200L760,-760L200,-760L200,-200ZM200,-200L200,-760L200,-200Z" style="fill:rgb(31,31,31);fill-rule:nonzero;"/>
    </g>
    <g transform="matrix(0.027325,0,0,0.029713,11.372573,14.819533)">
        <g transform="matrix(0.313503,0,0,0.968075,-443.618008,-2174.884288)">
            <path d="M877,2338L878,2337L880,2331L881,2323L883,2309L885,2302L888,2281L890,2275L891,2268L893,2256L895,2249L897,2237L898,2235L900,2225L901,2219L902,2209L903,2210L905,2201L906,2193L907,2189L908,2182L910,2179L911,2172L912,2170L913,2163L915,2156L916,2150L917,2146L918,2137L920,2140L921,2132L922,2132L923,2118L925,2117L926,2111L927,2110L928,2103L930,2097L931,2090L932,2093L933,2088L935,2081L936,2086L937,2074L938,2074L940,2072L941,2067L942,2057L943,2063L945,2053L946,2049L947,2048L948,2042L950,2043L951,2052L952,2036L953,2033L955,2036L956,2032L957,2018L958,2022L960,2015L961,2015L962,2013L963,2017L965,2009L966,2018L967,2010L968,2003L970,2002L971,1999L972,2005L973,1993L975,1996L976,1992L977,2002L978,1987L980,1988L981,1993L982,1987L983,1986L985,1985L986,1985L987,1981L988,1973L990,1971L991,1979L992,1978L993,1983L995,1981L996,1976L997,1985L998,1972L1000,1978L1001,1967L1002,1976L1003,1973L1005,1972L1006,1972L1007,1966L1008,1967L1010,1966L1011,1974L1012,1964L1013,1975L1015,1962L1016,1964L1017,1959L1018,1963L1020,1970L1021,1975L1022,1970L1023,1964L1025,1968L1026,1959L1027,1968L1028,1963L1030,1961L1031,1963L1032,1975L1033,1967L1035,1970L1036,1967L1037,1962L1038,1962L1040,1959L1041,1972L1042,1959L1043,1967L1045,1969L1046,1963L1047,1961L1048,1969L1050,1972L1051,1967L1052,1969L1053,1957L1055,1968L1056,1976L1057,1968L1058,1968L1060,1977L1061,1969L1063,1969L1065,1974L1066,1971L1067,1976L1068,1968L1071,1980L1072,1976L1073,1967L1075,1972L1076,1980L1077,1974L1078,1985L1080,1982L1081,1983L1082,1983L1083,1978L1085,1974L1086,1978L1087,1983L1088,1987L1090,1984L1091,1996L1092,1993L1093,1991L1095,1985L1096,1986L1097,1991L1098,1985L1100,1988L1101,1994L1102,1993L1103,1990L1105,1995L1106,1998L1107,1994L1108,2001L1110,2000L1111,2001L1112,2000L1113,1997L1115,2006L1116,1995L1117,1992L1118,2003L1120,2009L1121,2010L1122,2005L1123,2001L1125,2009L1126,2014L1127,2008L1128,2017L1130,2017L1131,2018L1132,2017L1133,2019L1135,2013L1136,2016L1137,2029L1138,2017L1140,2022L1141,2020L1142,2017L1143,2022L1145,2018L1146,2025L1147,2036L1148,2030L1150,2022L1151,2029L1152,2032L1153,2026L1155,2037L1156,2030L1157,2030L1158,2034L1160,2039L1161,2030L1162,2038L1163,2032L1165,2041L1167,2043L1168,2045L1170,2047L1171,2044L1172,2048L1173,2044L1175,2046L1176,2053L1177,2057L1178,2060L1180,2056L1181,2052L1182,2060L1183,2056L1185,2061L1186,2054L1187,2058L1188,2066L1190,2058L1191,2057L1192,2062L1194,2067L1195,2067L1196,2070L1197,2070L1199,2072L1200,2074L1201,2064L1202,2076L1204,2076L1205,2073L1206,2083L1207,2079L1209,2074L1210,2076L1211,2080L1212,2080L1214,2082L1215,2085L1216,2086L1217,2083L1219,2088L1220,2087L1221,2084L1222,2087L1224,2094L1225,2091L1226,2093L1227,2089L1229,2096L1230,2101L1231,2097L1232,2091L1234,2090L1235,2100L1236,2102L1237,2102L1239,2101L1240,2107L1241,2103L1242,2100L1244,2103L1245,2105L1246,2103L1247,2103L1249,2112L1250,2108L1251,2116L1252,2112L1254,2115L1256,2123L1257,2116L1259,2121L1260,2116L1261,2116L1262,2120L1264,2123L1265,2119L1266,2117L1267,2129L1269,2126L1270,2125L1271,2131L1272,2126L1274,2131L1275,2131L1277,2127L1279,2132L1280,2132L1281,2134L1282,2139L1284,2140L1285,2141L1286,2136L1287,2135L1289,2140L1290,2140L1291,2145L1292,2148L1294,2148L1295,2146L1296,2146L1297,2145L1299,2152L1300,2151L1301,2149L1305,2153L1306,2153L1307,2145L1309,2160L1310,2152L1311,2152L1312,2161L1316,2157L1317,2163L1319,2160L1320,2162L1321,2162L1322,2164L1324,2159L1325,2162L1326,2163L1327,2163L1329,2162L1330,2173L1331,2168L1332,2166L1334,2173L1335,2172L1336,2176L1337,2172L1339,2176L1340,2170L1341,2172L1342,2172L1344,2175L1345,2179L1346,2181L1347,2180L1349,2181L1350,2184L1351,2180L1352,2181L1354,2186L1355,2186L1356,2182L1357,2184L1359,2190L1360,2185L1361,2186L1362,2186L1364,2191L1365,2188L1366,2192L1367,2190L1369,2187L1370,2193L1371,2193L1372,2191L1374,2193L1375,2195L1376,2193L1379,2202L1380,2196L1381,2203L1382,2202L1384,2193L1385,2202L1386,2198L1387,2209L1389,2201L1390,2199L1391,2204L1392,2203L1394,2208L1395,2205L1396,2208L1397,2210L1399,2207L1400,2209L1401,2206L1402,2210L1404,2211L1405,2208L1406,2213L1409,2213L1410,2215L1411,2213L1412,2219L1414,2216L1415,2215L1416,2212L1417,2214L1419,2220L1420,2215L1421,2213L1422,2221L1424,2220L1425,2216L1426,2222L1427,2219L1429,2221L1430,2223L1431,2226L1432,2225L1434,2231L1435,2224L1436,2223L1437,2229L1439,2225L1440,2230L1441,2231L1442,2226L1444,2225L1445,2232L1446,2229L1447,2231L1449,2232L1450,2236L1451,2235L1452,2231L1454,2235L1455,2231L1456,2239L1457,2238L1459,2234L1460,2237L1461,2236L1462,2236L1464,2240L1465,2236L1466,2233L1467,2240L1469,2240L1470,2243L1471,2240L1472,2243L1475,2243L1476,2241L1477,2240L1479,2244L1480,2243L1482,2249L1484,2246L1485,2245L1486,2248L1487,2248L1489,2245L1490,2249L1491,2246L1492,2246L1494,2249L1495,2253L1496,2251L1497,2247L1499,2256L1500,2255L1501,2251L1503,2255L1504,2251L1505,2254L1506,2253L1508,2257L1509,2253L1510,2253L1513,2259L1514,2258L1515,2256L1516,2259L1518,2260L1519,2259L1520,2259L1521,2257L1523,2262L1524,2259L1525,2260L1526,2260L1528,2263L1529,2261L1530,2261L1531,2263L1533,2265L1534,2260L1535,2262L1536,2261L1538,2267L1539,2264L1540,2267L1541,2268L1543,2268L1544,2266L1545,2267L1546,2270L1548,2272L1549,2268L1551,2270L1553,2267L1554,2269L1555,2267L1556,2269L1558,2268L1560,2272L1561,2268L1563,2278L1564,2270L1565,2271L1566,2274L1568,2273L1569,2275L1570,2273L1571,2275L1573,2277L1574,2275L1575,2276L1576,2274L1578,2277L1579,2276L1580,2280L1581,2276L1583,2274L1584,2276L1585,2277L1586,2277L1588,2278L1589,2278L1590,2279L1591,2277L1593,2278L1594,2280L1596,2282L1598,2281L1599,2284L1600,2280L1601,2284L1603,2283L1604,2284L1605,2283L1606,2285L1608,2285L1609,2284L1610,2281L1611,2287L1613,2283L1614,2287L1616,2285L1618,2287L1619,2287L1620,2285L1621,2291L1623,2286L1624,2289L1625,2286L1626,2291L1628,2287L1629,2290L1630,2288L1631,2288L1633,2287L1634,2289L1635,2289L1636,2291L1638,2292L1639,2291L1640,2288L1641,2292L1643,2291L1644,2294L1645,2295L1646,2289L1648,2289L1649,2291L1650,2290L1651,2293L1653,2294L1654,2293L1655,2293L1656,2295L1658,2294L1660,2298L1661,2295L1663,2293L1664,2293L1665,2296L1666,2297L1668,2300L1669,2297L1670,2297L1671,2296L1673,2295L1674,2297L1675,2297L1676,2296L1678,2298L1679,2298L1680,2295L1681,2299L1683,2300L1685,2298L1686,2300L1688,2298L1689,2301L1690,2302L1691,2299L1693,2302L1694,2299L1695,2303L1696,2301L1698,2303L1701,2303L1703,2301L1705,2301L1706,2303L1708,2301L1709,2305L1710,2304L1711,2302L1714,2302L1718,2306L1723,2306L1724,2305L1725,2306L1726,2309L1728,2305L1729,2306L1730,2306L1731,2305L1733,2304L1734,2308L1735,2309L1736,2309L1738,2307L1739,2308L1740,2307L1743,2307L1744,2309L1745,2307L1746,2307L1748,2308L1749,2307L1750,2310L1751,2311" style="fill:none;fill-rule:nonzero;stroke:black;stroke-width:107.16px;"/>
        </g>
        <g transform="matrix(0.313503,0,0,0.968075,-443.618008,-2174.884288)">
            <path d="M1751,2311L1753,2310L1754,2310L1755,2308L1756,2308L1758,2309L1759,2308L1760,2310L1761,2310L1763,2311L1764,2311L1765,2309L1766,2313L1768,2310L1769,2309L1770,2311L1774,2311L1775,2312L1776,2310L1778,2312L1779,2312L1780,2310L1781,2311L1783,2314L1784,2313L1785,2313L1786,2314L1788,2311L1789,2313L1790,2314L1793,2314L1794,2313L1795,2313L1796,2314L1798,2315L1799,2314L1800,2316L1803,2316L1804,2313L1805,2317L1808,2314L1809,2315L1810,2315L1813,2318L1814,2316L1815,2315L1817,2316L1818,2316L1819,2319L1820,2318L1822,2317L1825,2317L1827,2318L1828,2318L1829,2316L1830,2318L1832,2316L1833,2318L1834,2318L1835,2317L1837,2318L1838,2319L1839,2317L1840,2319L1842,2318L1843,2318L1844,2319L1845,2319L1847,2318L1848,2320L1849,2317L1850,2319L1852,2321L1853,2319L1854,2322L1855,2321L1857,2321L1858,2319L1859,2320L1860,2320L1862,2319L1863,2318L1864,2320L1867,2320L1868,2323L1869,2322L1872,2322L1874,2320L1875,2322L1877,2321L1878,2321L1879,2319L1880,2321L1882,2323L1883,2323L1884,2322L1889,2322L1890,2325L1894,2321L1895,2322L1897,2322L1898,2323L1899,2322L1900,2322L1902,2324L1903,2322L1904,2324L1907,2324L1909,2322L1910,2325L1912,2323L1913,2323L1914,2324L1915,2323L1917,2323L1918,2324L1919,2323L1920,2325L1922,2327L1923,2325L1924,2326L1925,2323L1927,2325L1928,2327L1929,2325L1930,2325L1932,2324L1933,2325L1934,2325L1935,2324L1937,2327L1938,2327L1939,2325L1940,2327L1942,2327L1943,2325L1944,2327L1945,2325L1947,2326L1948,2325L1949,2326L1950,2326L1952,2327L1953,2326L1954,2326L1957,2329L1958,2327L1959,2327L1960,2326L1962,2327L1965,2327L1967,2328L1968,2329L1969,2328L1970,2326L1972,2328L1973,2327L1974,2328L1975,2328L1977,2329L1978,2327L1979,2329L1980,2326L1982,2327L1983,2328L1984,2327L1985,2329L1987,2327L1988,2328L1989,2328L1990,2327L1992,2328L1995,2328L1997,2327L1998,2328L1999,2328L2000,2329L2005,2329L2007,2328L2008,2329L2012,2329L2013,2328L2014,2329L2015,2329L2017,2328L2018,2330L2020,2328L2022,2329L2023,2331L2024,2329L2025,2328L2027,2329L2028,2331L2029,2331L2030,2329L2032,2331L2033,2329L2034,2330L2037,2330L2038,2331L2039,2330L2042,2330L2043,2331L2044,2329L2045,2329L2047,2330L2049,2330L2050,2331L2052,2332L2053,2331L2063,2331L2064,2332L2065,2331L2068,2331L2069,2332L2070,2331L2072,2330L2073,2332L2074,2331L2075,2332L2077,2332L2078,2333L2079,2331L2080,2330L2082,2332L2083,2331L2084,2333L2085,2332L2090,2332L2092,2333L2093,2332L2094,2333L2095,2332L2097,2332L2098,2333L2099,2333L2100,2332L2104,2332L2105,2333L2107,2332L2108,2332L2109,2333L2110,2332L2112,2333L2113,2334L2114,2332L2115,2332L2117,2333L2118,2333L2119,2332L2120,2333L2122,2332L2124,2332L2125,2333L2127,2332L2128,2332" style="fill:none;fill-rule:nonzero;stroke:black;stroke-width:107.16px;"/>
        </g>
    </g>
</svg>
