<?xml version="1.0" encoding="UTF-8" standalone="no"?>
<!DOCTYPE svg PUBLIC "-//W3C//DTD SVG 1.1//EN" "http://www.w3.org/Graphics/SVG/1.1/DTD/svg11.dtd">
<svg width="100%" height="100%" viewBox="0 0 1450 491" version="1.1" xmlns="http://www.w3.org/2000/svg" xmlns:xlink="http://www.w3.org/1999/xlink" xml:space="preserve" xmlns:serif="http://www.serif.com/" style="fill-rule:evenodd;clip-rule:evenodd;stroke-linejoin:round;stroke-miterlimit:2;">
    <g id="Prancheta1" transform="matrix(0.978723,0,0,0.804428,-383.007,-1147.66)">
        <rect x="391.333" y="1426.68" width="1481.5" height="610.163" style="fill:none;"/>
        <clipPath id="_clip1">
            <rect x="391.333" y="1426.68" width="1481.5" height="610.163"/>
        </clipPath>
        <g clip-path="url(#_clip1)">
            <g transform="matrix(1.16096,0,0,1.24312,25.7496,885.514)">
                <g transform="matrix(1.51492,0,0,1.51492,-424.467,-364.643)">
                    <path d="M795.195,445.802C855.035,445.802 905.112,468.486 945.426,513.856C985.739,559.225 1005.9,615.073 1005.9,681.397C1005.9,747.112 985.784,802.857 945.56,848.634C905.336,894.41 856.289,917.298 798.418,917.298C739.831,917.298 690.381,894.512 650.067,848.939C609.754,803.366 589.597,748.231 589.597,683.534C589.597,640.402 598.779,600.424 617.143,563.6C635.507,526.775 660.546,497.936 692.26,477.082C723.973,456.229 758.285,445.802 795.195,445.802ZM796.941,489.442C767.708,489.442 739.999,498.096 713.815,515.403C687.632,532.711 667.187,556.024 652.48,585.343C637.774,614.662 630.421,647.342 630.421,683.381C630.421,736.73 646.696,781.78 679.246,818.531C711.796,855.282 751.028,873.658 796.941,873.658C827.607,873.658 855.987,865.209 882.081,848.309C908.175,831.41 928.53,808.3 943.147,778.98C957.764,749.659 965.072,717.081 965.072,681.245C965.072,645.612 957.764,613.391 943.147,584.58C928.53,555.77 907.951,532.711 881.409,515.403C854.867,498.096 826.711,489.442 796.941,489.442Z" style="fill:rgb(255,201,0);fill-rule:nonzero;"/>
                </g>
                <path d="M319.781,822.389L353.354,799.5C376.989,848.939 404.295,873.658 435.271,873.658C448.521,873.658 460.965,870.149 472.603,863.13C484.242,856.111 493.105,846.701 499.193,834.901C505.281,823.101 508.325,810.588 508.325,797.364C508.325,782.309 503.848,767.559 494.896,753.114C482.541,733.176 459.98,709.168 427.213,681.092C394.268,652.813 373.766,632.366 365.709,619.752C351.742,598.593 344.759,575.705 344.759,551.087C344.759,531.556 348.878,513.754 357.114,497.682C365.35,481.609 376.944,468.944 391.895,459.687C406.846,450.43 423.095,445.802 440.642,445.802C459.264,445.802 476.677,451.041 492.881,461.518C509.086,471.996 526.23,491.273 544.314,519.349L512.085,547.12C497.223,524.741 484.555,509.99 474.081,502.87C463.606,495.749 452.191,492.188 439.837,492.188C423.901,492.188 410.875,497.682 400.758,508.668C390.642,519.654 385.583,533.184 385.583,549.256C385.583,559.022 387.374,568.482 390.955,577.638C394.536,586.793 401.072,596.762 410.561,607.545C415.754,613.241 432.764,628.195 461.592,652.406C495.791,681.092 519.247,706.625 531.96,729.005C544.672,751.384 551.029,773.866 551.029,796.449C551.029,829.001 540.151,857.28 518.396,881.288C496.641,905.295 470.186,917.298 439.031,917.298C415.038,917.298 393.283,910.025 373.766,895.478C354.249,880.932 336.254,856.568 319.781,822.389Z" style="fill-rule:nonzero;"/>
                <path d="M1057.62,457.093L1097.11,457.093L1097.11,862.672L1249.12,862.672L1249.12,906.007L1057.62,906.007L1057.62,457.093Z" style="fill-rule:nonzero;"/>
                <rect x="1278.56" y="457.093" width="39.481" height="448.914" style="fill-rule:nonzero;"/>
                <path d="M1340.23,822.389L1373.8,799.5C1397.43,848.939 1424.74,873.658 1455.71,873.658C1468.96,873.658 1481.41,870.149 1493.05,863.13C1504.68,856.111 1513.55,846.701 1519.64,834.901C1525.72,823.101 1528.77,810.588 1528.77,797.364C1528.77,782.309 1524.29,767.559 1515.34,753.114C1502.98,733.176 1480.42,709.168 1447.66,681.092C1414.71,652.813 1394.21,632.366 1386.15,619.752C1372.19,598.593 1365.2,575.705 1365.2,551.087C1365.2,531.556 1369.32,513.754 1377.56,497.682C1385.79,481.609 1397.39,468.944 1412.34,459.687C1427.29,450.43 1443.54,445.802 1461.09,445.802C1479.71,445.802 1497.12,451.041 1513.33,461.518C1529.53,471.996 1546.67,491.273 1564.76,519.349L1532.53,547.12C1517.67,524.741 1505,509.99 1494.52,502.87C1484.05,495.749 1472.63,492.188 1460.28,492.188C1444.34,492.188 1431.32,497.682 1421.2,508.668C1411.09,519.654 1406.03,533.184 1406.03,549.256C1406.03,559.022 1407.82,568.482 1411.4,577.638C1414.98,586.793 1421.52,596.762 1431.01,607.545C1436.2,613.241 1453.21,628.195 1482.04,652.406C1516.23,681.092 1539.69,706.625 1552.4,729.005C1565.12,751.384 1571.47,773.866 1571.47,796.449C1571.47,829.001 1560.6,857.28 1538.84,881.288C1517.09,905.295 1490.63,917.298 1459.47,917.298C1435.48,917.298 1413.73,910.025 1394.21,895.478C1374.69,880.932 1356.7,856.568 1340.23,822.389Z" style="fill-rule:nonzero;"/>
            </g>
        </g>
    </g>
</svg>
